<svg aria-hidden="true" style="position: absolute; width: 0; height: 0; overflow: hidden;" version="1.1" xmlns="http://www.w3.org/2000/svg" xmlns:xlink="http://www.w3.org/1999/xlink">
<defs>
<symbol id="icon-steam2" viewBox="0 0 32 32">
<path fill="#61a568" style="fill: var(--color1, #61a568)" d="M9.493 26.119c0.846 0 1.685-0.405 2.19-1.166 0.804-1.209 0.476-2.837-0.732-3.641l-2.062-1.38c0.356-0.092 0.725-0.149 1.109-0.149 2.325 0 4.21 1.884 4.21 4.21s-1.884 4.21-4.21 4.21c-2.261 0-4.11-1.785-4.203-4.025l2.247 1.5c0.448 0.299 0.953 0.441 1.451 0.441v0zM26.667 0c2.93 0 5.333 2.396 5.333 5.333v21.326c0 2.937-2.404 5.34-5.333 5.34h-21.333c-2.937 0-5.333-2.404-5.333-5.34v-6.343l3.79 2.532c-0.363 1.97 0.213 4.089 1.742 5.611 2.468 2.468 6.464 2.468 8.932 0 1.515-1.515 2.098-3.605 1.749-5.568l7.787-6.969c1.444-0.206 2.837-0.868 3.947-1.977 2.731-2.731 2.731-7.168 0-9.899s-7.168-2.731-9.899 0c-1.116 1.109-1.771 2.503-1.984 3.954l-6.393 9.692c-0.996 0.050-1.984 0.334-2.866 0.853l-6.805-4.537v-8.676c0-2.937 2.396-5.333 5.333-5.333h21.333zM27.996 8.996c0-2.759-2.24-4.999-4.999-4.999s-4.999 2.24-4.999 4.999c0 2.759 2.24 4.999 4.999 4.999s4.999-2.24 4.999-4.999zM19.996 8.996c0-1.657 1.344-3.001 3.001-3.001s3.001 1.344 3.001 3.001c0 1.657-1.344 3.001-3.001 3.001s-3.001-1.344-3.001-3.001z"></path>
</symbol>
<symbol id="icon-Vector-2" viewBox="0 0 32 32">
<path fill="#61a568" style="fill: var(--color1, #61a568)" d="M25.998 4.501v-4.523h-20.004v4.523h-5.995v4.523c0 3.748 2.681 6.784 5.995 6.784 0.626 0 1.237-0.114 1.806-0.313 1.436 2.332 3.641 4.018 6.194 4.608v7.004h-1.998c-2.212 0-3.996 2.027-3.996 4.523h16c0-2.496-1.792-4.523-4.004-4.523h-1.998v-7.004c2.553-0.59 4.757-2.276 6.194-4.608 0.569 0.199 1.173 0.313 1.806 0.313 3.314 0 6.002-3.036 6.002-6.784v-4.523h-6.002zM5.995 13.12c-1.998 0-3.627-1.835-3.627-4.096v-2.261h3.627v2.261c0 1.422 0.235 2.773 0.654 4.032-0.213 0.043-0.427 0.064-0.654 0.064zM29.625 9.024c0 2.261-1.628 4.096-3.627 4.096-0.228 0-0.441-0.021-0.654-0.064 0.42-1.252 0.654-2.61 0.654-4.032v-2.261h3.627v2.261z"></path>
</symbol>
<symbol id="icon-Vector-1" viewBox="0 0 32 32">
<path fill="#61a568" style="fill: var(--color1, #61a568)" d="M32 15.851c0-8.761-7.168-15.865-16-15.865-8.839 0-16 7.104-16 15.865 0 1.899 0.334 3.726 0.953 5.412-0.604 1.031-0.953 2.226-0.953 3.506 0 3.499 2.603 6.386 5.995 6.869v-13.739c-0.996 0.142-1.927 0.491-2.738 1.010-0.171-0.832-0.263-1.685-0.263-2.567 0-7.111 5.824-12.885 13.006-12.885 7.175 0 12.999 5.774 12.999 12.885 0 0.882-0.092 1.735-0.263 2.567-0.811-0.519-1.742-0.868-2.738-1.010v13.739c3.392-0.484 6.002-3.371 6.002-6.869 0-1.28-0.356-2.475-0.96-3.506 0.619-1.685 0.96-3.513 0.96-5.419v0.007z"></path>
</symbol>
<symbol id="icon-earth" viewBox="0 0 32 32">
<path fill="#61a568" style="fill: var(--color1, #61a568)" d="M16 0c-8.839 0-16 7.161-16 16 0 8.832 7.161 16 16 16 8.832 0 16-7.168 16-16 0-8.839-7.168-16-16-16zM16 29.995c-1.97 0-3.84-0.405-5.54-1.138l7.282-8.199c0.164-0.178 0.256-0.42 0.256-0.661v-3.001c0-0.548-0.448-0.996-1.003-0.996-3.527 0-7.253-3.676-7.289-3.712-0.192-0.185-0.441-0.292-0.711-0.292h-3.996c-0.555 0-1.003 0.448-1.003 1.003v5.995c0 0.384 0.213 0.725 0.555 0.896l3.449 1.728v5.867c-3.627-2.532-6.002-6.734-6.002-11.484 0-2.148 0.484-4.181 1.344-6.002h3.655c0.263 0 0.519-0.107 0.704-0.292l4.004-4.004c0.185-0.185 0.292-0.441 0.292-0.704v-2.425c1.266-0.377 2.61-0.576 4.004-0.576 2.197 0 4.281 0.505 6.13 1.408-0.128 0.114-0.256 0.228-0.377 0.348-1.131 1.131-1.756 2.638-1.756 4.245 0 1.6 0.626 3.108 1.756 4.238 1.145 1.138 2.667 1.756 4.238 1.756 0.1 0 0.199 0 0.299-0.007 0.434 1.621 1.216 5.838-0.263 11.641-0.014 0.050-0.021 0.107-0.021 0.164-2.546 2.596-6.087 4.203-10.005 4.203v0z"></path>
</symbol>
<symbol id="icon-bubbles2" viewBox="0 0 32 32">
<path fill="#61a568" style="fill: var(--color1, #61a568)" d="M13.333 0c7.36 0 13.333 5.433 13.333 12.139 0 6.699-5.973 12.139-13.333 12.139-0.711 0-1.401-0.057-2.084-0.149-2.866 3.207-6.172 3.783-9.472 3.868v-0.782c1.778-0.981 3.221-2.766 3.221-4.807 0-0.284-0.021-0.562-0.057-0.839-3.015-2.226-4.942-5.625-4.942-9.429 0-6.706 5.966-12.139 13.333-12.139v0zM27.662 27.207c0 1.749 1.010 3.278 2.56 4.117v0.676c-2.866-0.078-5.497-0.569-7.979-3.321-0.59 0.085-1.188 0.128-1.799 0.128-2.652 0-5.099-0.804-7.047-2.155 4.018-0.021 7.815-1.465 10.688-4.089 1.451-1.316 2.596-2.866 3.399-4.601 0.853-1.842 1.287-3.804 1.287-5.824 0-0.327-0.007-0.654-0.036-0.974 2.020 1.87 3.264 4.423 3.264 7.239 0 3.264-1.671 6.18-4.288 8.085-0.028 0.235-0.050 0.469-0.050 0.718z"></path>
</symbol>
<symbol id="icon-Vector" viewBox="0 0 32 32">
<path fill="#61a568" style="fill: var(--color1, #61a568)" d="M32 20.359v-17.451h-24c0-1.607-0.896-2.908-2.005-2.908h-5.995v2.908h3.996l1.5 18.731c-0.91 1.060-1.5 2.702-1.5 4.537 0 3.214 1.792 5.824 4.004 5.824h24v-2.916h-24c-1.109 0-2.005-1.301-2.005-2.908 0-0.007 0-0.021 0-0.028l26.005-5.788z"></path>
</symbol>
</defs>
</svg>
